<mxfile host="app.diagrams.net" modified="2022-01-25T19:10:36.352Z" agent="5.0 (Windows NT 10.0; Win64; x64) AppleWebKit/537.36 (KHTML, like Gecko) Chrome/97.0.4692.99 Safari/537.36 Edg/97.0.1072.69" etag="QN7a43a_BJks-luSaTJv" version="16.4.7" type="github">
  <diagram id="ZqMlhw6HM5E0plBPhH-u" name="Page-1">
    <mxGraphModel dx="918" dy="885" grid="1" gridSize="10" guides="1" tooltips="1" connect="1" arrows="1" fold="1" page="1" pageScale="1" pageWidth="827" pageHeight="1169" math="0" shadow="0">
      <root>
        <mxCell id="0" />
        <mxCell id="1" parent="0" />
        <mxCell id="c9SwMkSAkgVSywDzVhDR-12" style="edgeStyle=orthogonalEdgeStyle;rounded=0;orthogonalLoop=1;jettySize=auto;html=1;exitX=0.5;exitY=1;exitDx=0;exitDy=0;entryX=0.5;entryY=0;entryDx=0;entryDy=0;" parent="1" source="WKFcctsPhPMP4OKQL6qr-1" target="c9SwMkSAkgVSywDzVhDR-11" edge="1">
          <mxGeometry relative="1" as="geometry" />
        </mxCell>
        <mxCell id="WKFcctsPhPMP4OKQL6qr-1" value="INICIO" style="ellipse;whiteSpace=wrap;html=1;" parent="1" vertex="1">
          <mxGeometry x="250" y="10" width="100" height="60" as="geometry" />
        </mxCell>
        <mxCell id="WKFcctsPhPMP4OKQL6qr-6" style="edgeStyle=orthogonalEdgeStyle;rounded=0;orthogonalLoop=1;jettySize=auto;html=1;exitX=1;exitY=0.5;exitDx=0;exitDy=0;entryX=0;entryY=0.5;entryDx=0;entryDy=0;entryPerimeter=0;" parent="1" source="WKFcctsPhPMP4OKQL6qr-2" target="c9SwMkSAkgVSywDzVhDR-18" edge="1">
          <mxGeometry relative="1" as="geometry">
            <mxPoint x="560" y="235" as="targetPoint" />
          </mxGeometry>
        </mxCell>
        <mxCell id="WKFcctsPhPMP4OKQL6qr-14" style="edgeStyle=orthogonalEdgeStyle;rounded=0;orthogonalLoop=1;jettySize=auto;html=1;entryX=0.5;entryY=0;entryDx=0;entryDy=0;" parent="1" source="WKFcctsPhPMP4OKQL6qr-2" target="WKFcctsPhPMP4OKQL6qr-13" edge="1">
          <mxGeometry relative="1" as="geometry" />
        </mxCell>
        <mxCell id="WKFcctsPhPMP4OKQL6qr-2" value="DATA DO EVENTO&lt;br&gt;&amp;gt;&lt;br&gt;&amp;nbsp;DATA ATUAL ?" style="rhombus;whiteSpace=wrap;html=1;" parent="1" vertex="1">
          <mxGeometry x="190" y="170" width="220" height="130" as="geometry" />
        </mxCell>
        <mxCell id="WKFcctsPhPMP4OKQL6qr-8" value="NÃO" style="text;html=1;align=center;verticalAlign=middle;resizable=0;points=[];autosize=1;fontColor=#FF3333;" parent="1" vertex="1">
          <mxGeometry x="470" y="210" width="40" height="20" as="geometry" />
        </mxCell>
        <mxCell id="WKFcctsPhPMP4OKQL6qr-11" value="FIM" style="ellipse;whiteSpace=wrap;html=1;" parent="1" vertex="1">
          <mxGeometry x="690" y="380" width="100" height="50" as="geometry" />
        </mxCell>
        <mxCell id="WKFcctsPhPMP4OKQL6qr-16" style="edgeStyle=orthogonalEdgeStyle;rounded=0;orthogonalLoop=1;jettySize=auto;html=1;exitX=0.5;exitY=1;exitDx=0;exitDy=0;entryX=0.5;entryY=0;entryDx=0;entryDy=0;" parent="1" source="WKFcctsPhPMP4OKQL6qr-13" target="WKFcctsPhPMP4OKQL6qr-15" edge="1">
          <mxGeometry relative="1" as="geometry" />
        </mxCell>
        <mxCell id="WKFcctsPhPMP4OKQL6qr-13" value="EVENTO PERMITIDO" style="rounded=0;whiteSpace=wrap;html=1;" parent="1" vertex="1">
          <mxGeometry x="240" y="330" width="120" height="60" as="geometry" />
        </mxCell>
        <mxCell id="WKFcctsPhPMP4OKQL6qr-18" style="edgeStyle=orthogonalEdgeStyle;rounded=0;orthogonalLoop=1;jettySize=auto;html=1;" parent="1" source="WKFcctsPhPMP4OKQL6qr-15" target="WKFcctsPhPMP4OKQL6qr-17" edge="1">
          <mxGeometry relative="1" as="geometry" />
        </mxCell>
        <mxCell id="WKFcctsPhPMP4OKQL6qr-15" value="DIGITE A&amp;nbsp; DATA&lt;br&gt;DE NASCIMENTO" style="shape=parallelogram;perimeter=parallelogramPerimeter;whiteSpace=wrap;html=1;fixedSize=1;" parent="1" vertex="1">
          <mxGeometry x="235" y="430" width="130" height="60" as="geometry" />
        </mxCell>
        <mxCell id="WKFcctsPhPMP4OKQL6qr-20" style="edgeStyle=orthogonalEdgeStyle;rounded=0;orthogonalLoop=1;jettySize=auto;html=1;exitX=1;exitY=0.5;exitDx=0;exitDy=0;entryX=0;entryY=0.5;entryDx=0;entryDy=0;" parent="1" source="WKFcctsPhPMP4OKQL6qr-17" edge="1">
          <mxGeometry relative="1" as="geometry">
            <mxPoint x="490" y="590" as="targetPoint" />
          </mxGeometry>
        </mxCell>
        <mxCell id="c9SwMkSAkgVSywDzVhDR-15" style="edgeStyle=orthogonalEdgeStyle;rounded=0;orthogonalLoop=1;jettySize=auto;html=1;exitX=0.5;exitY=1;exitDx=0;exitDy=0;entryX=0.5;entryY=0;entryDx=0;entryDy=0;" parent="1" source="WKFcctsPhPMP4OKQL6qr-17" target="c9SwMkSAkgVSywDzVhDR-14" edge="1">
          <mxGeometry relative="1" as="geometry" />
        </mxCell>
        <mxCell id="WKFcctsPhPMP4OKQL6qr-17" value="DATA ATUAL - DATA DIGITADA &lt;br&gt;&amp;gt;=18 ?" style="rhombus;whiteSpace=wrap;html=1;" parent="1" vertex="1">
          <mxGeometry x="172.5" y="530" width="255" height="120" as="geometry" />
        </mxCell>
        <mxCell id="WKFcctsPhPMP4OKQL6qr-21" value="NÃO" style="text;html=1;align=center;verticalAlign=middle;resizable=0;points=[];autosize=1;strokeColor=none;fillColor=none;fontColor=#FF3333;" parent="1" vertex="1">
          <mxGeometry x="430" y="570" width="40" height="20" as="geometry" />
        </mxCell>
        <mxCell id="c9SwMkSAkgVSywDzVhDR-5" style="edgeStyle=orthogonalEdgeStyle;rounded=0;orthogonalLoop=1;jettySize=auto;html=1;exitX=0.5;exitY=1;exitDx=0;exitDy=0;" parent="1" source="c9SwMkSAkgVSywDzVhDR-3" target="c9SwMkSAkgVSywDzVhDR-4" edge="1">
          <mxGeometry relative="1" as="geometry" />
        </mxCell>
        <mxCell id="c9SwMkSAkgVSywDzVhDR-3" value="&lt;span&gt;LISTAR PARTICIPANTES&amp;nbsp;&lt;/span&gt;&lt;br&gt;&lt;span&gt;E&lt;/span&gt;&lt;br&gt;&lt;span&gt;PALESTRANTES POR EVENTO&lt;/span&gt;" style="shape=parallelogram;perimeter=parallelogramPerimeter;whiteSpace=wrap;html=1;fixedSize=1;" parent="1" vertex="1">
          <mxGeometry x="200" y="770" width="200" height="90" as="geometry" />
        </mxCell>
        <mxCell id="c9SwMkSAkgVSywDzVhDR-23" style="edgeStyle=orthogonalEdgeStyle;rounded=0;orthogonalLoop=1;jettySize=auto;html=1;exitX=1;exitY=0.5;exitDx=0;exitDy=0;entryX=0;entryY=0.5;entryDx=0;entryDy=0;entryPerimeter=0;" parent="1" source="c9SwMkSAkgVSywDzVhDR-4" target="c9SwMkSAkgVSywDzVhDR-22" edge="1">
          <mxGeometry relative="1" as="geometry" />
        </mxCell>
        <mxCell id="c9SwMkSAkgVSywDzVhDR-29" style="edgeStyle=orthogonalEdgeStyle;rounded=0;orthogonalLoop=1;jettySize=auto;html=1;exitX=0.5;exitY=1;exitDx=0;exitDy=0;entryX=0.5;entryY=0;entryDx=0;entryDy=0;fontColor=#000000;" parent="1" source="c9SwMkSAkgVSywDzVhDR-4" target="c9SwMkSAkgVSywDzVhDR-28" edge="1">
          <mxGeometry relative="1" as="geometry" />
        </mxCell>
        <mxCell id="c9SwMkSAkgVSywDzVhDR-4" value="NÚMERO PARTICIPANTES&amp;nbsp;&lt;br&gt;&amp;lt;&lt;br&gt;100" style="rhombus;whiteSpace=wrap;html=1;" parent="1" vertex="1">
          <mxGeometry x="165" y="920" width="270" height="120" as="geometry" />
        </mxCell>
        <mxCell id="c9SwMkSAkgVSywDzVhDR-13" style="edgeStyle=orthogonalEdgeStyle;rounded=0;orthogonalLoop=1;jettySize=auto;html=1;exitX=0.5;exitY=1;exitDx=0;exitDy=0;entryX=0.5;entryY=0;entryDx=0;entryDy=0;" parent="1" source="c9SwMkSAkgVSywDzVhDR-11" target="WKFcctsPhPMP4OKQL6qr-2" edge="1">
          <mxGeometry relative="1" as="geometry" />
        </mxCell>
        <mxCell id="c9SwMkSAkgVSywDzVhDR-11" value="DIGITE A DATA&amp;nbsp;&lt;br&gt;DO EVENTO&amp;nbsp;" style="shape=parallelogram;perimeter=parallelogramPerimeter;whiteSpace=wrap;html=1;fixedSize=1;" parent="1" vertex="1">
          <mxGeometry x="240" y="90" width="120" height="60" as="geometry" />
        </mxCell>
        <mxCell id="c9SwMkSAkgVSywDzVhDR-17" style="edgeStyle=orthogonalEdgeStyle;rounded=0;orthogonalLoop=1;jettySize=auto;html=1;exitX=0.5;exitY=1;exitDx=0;exitDy=0;entryX=0.5;entryY=0;entryDx=0;entryDy=0;" parent="1" source="c9SwMkSAkgVSywDzVhDR-14" target="c9SwMkSAkgVSywDzVhDR-3" edge="1">
          <mxGeometry relative="1" as="geometry" />
        </mxCell>
        <mxCell id="c9SwMkSAkgVSywDzVhDR-14" value="PERMITIR&lt;br&gt;CADASTRO" style="rounded=0;whiteSpace=wrap;html=1;" parent="1" vertex="1">
          <mxGeometry x="240" y="680" width="120" height="60" as="geometry" />
        </mxCell>
        <mxCell id="c9SwMkSAkgVSywDzVhDR-19" style="edgeStyle=orthogonalEdgeStyle;rounded=0;orthogonalLoop=1;jettySize=auto;html=1;entryX=0.5;entryY=0;entryDx=0;entryDy=0;" parent="1" source="c9SwMkSAkgVSywDzVhDR-18" target="WKFcctsPhPMP4OKQL6qr-11" edge="1">
          <mxGeometry relative="1" as="geometry" />
        </mxCell>
        <mxCell id="c9SwMkSAkgVSywDzVhDR-18" value="&lt;span&gt;DATA INVÁLIDA&lt;/span&gt;&lt;br&gt;&lt;span&gt;CADASTRO NÃO PERMITIDO&lt;/span&gt;" style="shape=display;whiteSpace=wrap;html=1;" parent="1" vertex="1">
          <mxGeometry x="670" y="202.5" width="140" height="65" as="geometry" />
        </mxCell>
        <mxCell id="c9SwMkSAkgVSywDzVhDR-21" style="edgeStyle=orthogonalEdgeStyle;rounded=0;orthogonalLoop=1;jettySize=auto;html=1;exitX=1;exitY=0.5;exitDx=0;exitDy=0;exitPerimeter=0;entryX=0;entryY=0.5;entryDx=0;entryDy=0;" parent="1" source="c9SwMkSAkgVSywDzVhDR-20" target="WKFcctsPhPMP4OKQL6qr-11" edge="1">
          <mxGeometry relative="1" as="geometry" />
        </mxCell>
        <mxCell id="c9SwMkSAkgVSywDzVhDR-20" value="&#xa;&#xa;&lt;span style=&quot;color: rgb(0, 0, 0); font-family: helvetica; font-size: 12px; font-style: normal; font-weight: 400; letter-spacing: normal; text-align: center; text-indent: 0px; text-transform: none; word-spacing: 0px; background-color: rgb(248, 249, 250); display: inline; float: none;&quot;&gt;MENOR DE IDADE&lt;/span&gt;&lt;br style=&quot;color: rgb(0, 0, 0); font-family: helvetica; font-size: 12px; font-style: normal; font-weight: 400; letter-spacing: normal; text-align: center; text-indent: 0px; text-transform: none; word-spacing: 0px; background-color: rgb(248, 249, 250);&quot;&gt;&lt;span style=&quot;color: rgb(0, 0, 0); font-family: helvetica; font-size: 12px; font-style: normal; font-weight: 400; letter-spacing: normal; text-align: center; text-indent: 0px; text-transform: none; word-spacing: 0px; background-color: rgb(248, 249, 250); display: inline; float: none;&quot;&gt;CADASTRO INVÁLIDO&lt;/span&gt;&#xa;&#xa;" style="shape=display;whiteSpace=wrap;html=1;" parent="1" vertex="1">
          <mxGeometry x="480" y="555" width="170" height="70" as="geometry" />
        </mxCell>
        <mxCell id="c9SwMkSAkgVSywDzVhDR-27" style="edgeStyle=orthogonalEdgeStyle;rounded=0;orthogonalLoop=1;jettySize=auto;html=1;entryX=0.5;entryY=1;entryDx=0;entryDy=0;fontColor=#FF0000;" parent="1" source="c9SwMkSAkgVSywDzVhDR-22" target="WKFcctsPhPMP4OKQL6qr-11" edge="1">
          <mxGeometry relative="1" as="geometry" />
        </mxCell>
        <mxCell id="c9SwMkSAkgVSywDzVhDR-22" value="CADASTRO NÃO PERMITIDO&lt;br&gt;LIMITE EXCEDIDO" style="shape=display;whiteSpace=wrap;html=1;" parent="1" vertex="1">
          <mxGeometry x="490" y="940" width="190" height="80" as="geometry" />
        </mxCell>
        <mxCell id="c9SwMkSAkgVSywDzVhDR-24" value="NÃO" style="text;html=1;align=center;verticalAlign=middle;resizable=0;points=[];autosize=1;strokeColor=none;fillColor=none;fontColor=#FF0000;" parent="1" vertex="1">
          <mxGeometry x="440" y="960" width="40" height="20" as="geometry" />
        </mxCell>
        <mxCell id="c9SwMkSAkgVSywDzVhDR-25" value="SIM" style="text;html=1;align=center;verticalAlign=middle;resizable=0;points=[];autosize=1;strokeColor=none;fillColor=none;fontColor=#009900;" parent="1" vertex="1">
          <mxGeometry x="300" y="650" width="40" height="20" as="geometry" />
        </mxCell>
        <mxCell id="c9SwMkSAkgVSywDzVhDR-26" value="SIM" style="text;html=1;align=center;verticalAlign=middle;resizable=0;points=[];autosize=1;strokeColor=none;fillColor=none;fontColor=#00CC00;" parent="1" vertex="1">
          <mxGeometry x="300" y="300" width="40" height="20" as="geometry" />
        </mxCell>
        <mxCell id="c9SwMkSAkgVSywDzVhDR-30" style="edgeStyle=orthogonalEdgeStyle;rounded=0;orthogonalLoop=1;jettySize=auto;html=1;exitX=1;exitY=0.5;exitDx=0;exitDy=0;entryX=1;entryY=0.5;entryDx=0;entryDy=0;fontColor=#000000;" parent="1" source="c9SwMkSAkgVSywDzVhDR-28" target="WKFcctsPhPMP4OKQL6qr-11" edge="1">
          <mxGeometry relative="1" as="geometry" />
        </mxCell>
        <mxCell id="c9SwMkSAkgVSywDzVhDR-28" value="CADASTRO&lt;br&gt;REALIZADO.&lt;br&gt;NUMERO DE PARTICIPTES++" style="rounded=0;whiteSpace=wrap;html=1;fontColor=#000000;" parent="1" vertex="1">
          <mxGeometry x="240" y="1080" width="120" height="60" as="geometry" />
        </mxCell>
        <mxCell id="c9SwMkSAkgVSywDzVhDR-31" value="SIM" style="text;html=1;align=center;verticalAlign=middle;resizable=0;points=[];autosize=1;strokeColor=none;fillColor=none;fontColor=#009900;" parent="1" vertex="1">
          <mxGeometry x="300" y="1050" width="40" height="20" as="geometry" />
        </mxCell>
      </root>
    </mxGraphModel>
  </diagram>
</mxfile>
